<svg width="18" height="18" viewBox="0 0 18 18" fill="none" xmlns="http://www.w3.org/2000/svg">
<path d="M9.95321 4.29519C9.95321 4.4794 9.95321 5.07984 9.95321 5.93287H12.8861L12.5681 8.54733H9.95321C9.95321 12.5793 9.95321 17.9824 9.95321 17.9824H6.48237C6.48237 17.9824 6.48237 12.6508 6.48237 8.54733H4.67383V5.93287H6.48237C6.48237 4.89604 6.48237 4.15878 6.48237 3.9535C6.48237 2.97545 6.40868 2.51139 6.82427 1.75349C7.24006 0.995631 8.41287 -0.00611174 10.4414 0.0180054C12.4703 0.0430015 13.3256 0.238189 13.3256 0.238189L12.8861 3.02457C12.8861 3.02457 11.5905 2.68246 10.9545 2.80438C10.3194 2.92634 9.95321 3.31756 9.95321 4.29519Z" fill="white"/>
</svg>
