<svg width="18" height="18" viewBox="0 0 18 18" fill="none" xmlns="http://www.w3.org/2000/svg">
<g clip-path="url(#clip0_312_755)">
<path fill-rule="evenodd" clip-rule="evenodd" d="M4.09584 17.5857V5.99948H0.245215V17.5857H4.09584V17.5857ZM2.17093 4.41815C3.5133 4.41815 4.3495 3.52771 4.3495 2.41589C4.32411 1.27936 3.5133 0.414062 2.19611 0.414062C0.878695 0.414098 0.0175781 1.2794 0.0175781 2.41593C0.0175781 3.52775 0.853312 4.41818 2.14559 4.41818L2.17093 4.41815ZM6.22702 17.5857C6.22702 17.5857 6.27753 7.08658 6.22702 5.99951H10.0782V7.67977H10.0527C10.5591 6.88911 11.4714 5.72744 13.5486 5.72744C16.0829 5.72744 17.9824 7.3834 17.9824 10.9423V17.5858H14.1318V11.3875C14.1318 9.83 13.5746 8.76722 12.1807 8.76722C11.1171 8.76722 10.4832 9.48371 10.2049 10.1763C10.103 10.4228 10.0782 10.7691 10.0782 11.1153V17.5857H6.22702Z" fill="white"/>
</g>
<defs>
<clipPath id="clip0_312_755">
<rect width="18" height="18" fill="white"/>
</clipPath>
</defs>
</svg>
