<svg width="214" height="30" viewBox="0 0 214 30" fill="none" xmlns="http://www.w3.org/2000/svg">
<g clip-path="url(#clip0_2028_494)">
<path d="M85.2242 24.277C83.9346 24.9696 82.4239 25.2977 80.6185 25.2977C78.8131 25.2977 77.9288 25.0425 76.7497 24.4957C75.5706 23.949 74.539 23.2199 73.6915 22.2722C72.8441 21.3244 72.144 20.2309 71.7018 18.9915C71.2228 17.7521 71.0018 16.4034 71.0018 14.9453C71.0018 13.4872 71.2228 12.175 71.7018 10.9356C72.1808 9.69623 72.8441 8.60267 73.6915 7.69137C74.539 6.78007 75.5706 6.05103 76.7497 5.50425C77.9288 4.95747 79.2184 4.70231 80.6185 4.70231C82.0186 4.70231 83.7872 5.03038 85.0768 5.68651C86.4033 6.34265 87.6192 7.2175 88.7983 8.2746L92.1144 4.52005C91.4143 3.86391 90.6774 3.24423 89.9036 2.69745C89.1299 2.15067 88.2824 1.67679 87.3613 1.27582C86.4401 0.874848 85.4453 0.583232 84.3399 0.328068C83.2346 0.109356 82.0186 0 80.6922 0C78.4446 0 76.4181 0.400972 74.5758 1.16646C72.7335 1.96841 71.1492 3.02552 69.8227 4.41069C68.4963 5.79587 67.4277 7.3633 66.6908 9.1859C65.9539 11.0085 65.5854 12.9405 65.5854 15.0182C65.5854 17.096 65.9539 19.0644 66.7277 20.887C67.4646 22.7096 68.5331 24.277 69.8596 25.6258C71.186 26.9745 72.7335 28.0316 74.5758 28.7971C76.3812 29.5626 78.3709 29.9635 80.508 29.9635C82.645 29.9635 83.124 29.8542 84.2662 29.599C85.4085 29.3803 86.4401 29.0158 87.3981 28.5784C88.3561 28.1409 89.2404 27.5942 90.051 26.9745C90.8616 26.3548 91.6722 25.6622 92.4091 24.8603L89.093 21.5431C87.8403 22.7096 86.5875 23.6209 85.2979 24.277H85.2242Z" fill="black"/>
<path d="M103.868 17.1324H118.533V12.5395H103.868V5.10328H120.412V0.510328H98.7832V29.4532H120.633V24.8603H103.868V17.1324Z" fill="black"/>
<path d="M147.604 17.3147C148.452 16.8044 149.188 16.1847 149.815 15.4557C150.441 14.7266 150.92 13.8882 151.252 12.9405C151.583 11.9927 151.768 10.8991 151.768 9.69623C151.768 8.49332 151.51 6.99879 151.031 5.86877C150.515 4.73876 149.815 3.75456 148.894 2.98906C147.973 2.18712 146.83 1.60389 145.467 1.16646C144.104 0.72904 142.593 0.510328 140.935 0.510328H127.892V29.4532H132.976V19.356H139.424L146.646 29.4532H152.726L144.804 18.4812C145.835 18.1896 146.793 17.825 147.641 17.3147H147.604ZM132.939 14.836V5.10328H140.456C142.372 5.10328 143.883 5.50425 144.951 6.34265C146.02 7.14459 146.536 8.38396 146.536 9.98785C146.536 11.5917 145.983 12.6853 144.914 13.5601C143.809 14.435 142.372 14.8724 140.493 14.8724H132.939V14.836Z" fill="black"/>
<path d="M156.889 5.21264H166.174V29.4532H171.37V5.21264H180.655V0.510328H156.889V5.21264Z" fill="black"/>
<path d="M195.982 18.627C195.319 18.1531 194.582 17.7521 193.772 17.4241C192.961 17.096 192.15 16.8044 191.34 16.5492C190.713 16.367 190.087 16.1482 189.461 15.966C188.834 15.7837 188.318 15.5286 187.876 15.3098C187.434 15.0911 187.029 14.7995 186.771 14.5079C186.476 14.2163 186.366 13.8882 186.366 13.4872V13.4143C186.366 12.7947 186.624 12.2479 187.176 11.8469C187.729 11.4459 188.466 11.2272 189.461 11.2272C190.456 11.2272 191.377 11.4095 192.482 11.774C193.587 12.1385 194.656 12.6488 195.688 13.2685L197.677 9.69623C196.498 8.93074 195.209 8.31106 193.772 7.87363C192.335 7.43621 190.935 7.2175 189.534 7.2175C188.134 7.2175 187.434 7.36331 186.476 7.65492C185.518 7.94654 184.671 8.38396 183.971 8.96719C183.271 9.55043 182.718 10.243 182.313 11.0814C181.907 11.9198 181.723 12.8311 181.723 13.8518V13.9247C181.723 14.9818 181.944 15.8566 182.349 16.5492C182.755 17.2418 183.307 17.8615 183.971 18.3354C184.634 18.8092 185.371 19.2102 186.181 19.5018C186.992 19.7934 187.803 20.0851 188.613 20.3402C189.24 20.5225 189.866 20.7047 190.492 20.887C191.082 21.0693 191.635 21.288 192.077 21.5067C192.519 21.7254 192.887 22.017 193.182 22.3086C193.44 22.6002 193.587 22.9648 193.587 23.4022V23.4751C193.587 24.2041 193.293 24.7509 192.703 25.1883C192.114 25.6258 191.266 25.8445 190.161 25.8445C189.055 25.8445 187.839 25.6258 186.587 25.1519C185.334 24.7145 184.118 24.0219 182.939 23.147L180.691 26.5371C182.092 27.6306 183.602 28.4326 185.223 28.9793C186.845 29.5261 188.466 29.8177 190.05 29.8177C191.635 29.8177 192.261 29.6719 193.256 29.3803C194.251 29.0887 195.135 28.6513 195.872 28.1045C196.609 27.5577 197.198 26.8287 197.604 25.9903C198.009 25.1519 198.23 24.1312 198.23 22.9648V22.8919C198.23 21.9077 198.009 21.0693 197.604 20.3767C197.198 19.6841 196.646 19.1008 195.982 18.627Z" fill="black"/>
<path d="M23.3236 0.838396L18.8652 11.1908H11.1645L4.42171 4.52005C4.71648 4.15553 4.86386 3.68165 4.86386 3.17132C4.86386 1.8955 3.83218 0.874848 2.54258 0.874848C1.25298 0.874848 0.221299 1.8955 0.221299 3.13487C0.221299 4.37424 1.25298 5.43135 2.54258 5.43135C3.83218 5.43135 3.13211 5.35844 3.39003 5.28554L10.6486 12.4666H18.3126L17.3177 14.7995H4.67963C4.38487 13.8518 3.50057 13.1227 2.43204 13.1227C1.36352 13.1227 0.110762 14.1434 0.110762 15.4192C0.110762 16.695 1.14244 17.7157 2.43204 17.7157C3.72164 17.7157 4.38487 17.0231 4.67963 16.0389H16.765L15.7702 18.3718H10.3907L3.13211 25.5529C2.87419 25.4435 2.57943 25.407 2.28466 25.407C0.995059 25.407 -0.0366211 26.4277 -0.0366211 27.7035C-0.0366211 28.9793 0.995059 30 2.28466 30C3.57426 30 4.60594 28.9793 4.60594 27.7035C4.60594 26.4277 4.42171 26.7193 4.16379 26.3548L10.9066 19.6841H15.1807L10.7223 30.0364H17.2809L19.9706 23.548H32.3508L35.0405 30.0364H41.7833L29.2557 0.838396H23.3236ZM22.3287 17.8615L26.2344 8.45686L30.14 17.8615H22.3656H22.3287Z" fill="#CFA935"/>
<path d="M54.2 0.9113H47.752V29.8542H54.2V0.9113Z" fill="#CFA935"/>
<path d="M198.267 2.04131H200.625V8.16525H202.32V2.04131H204.678V0.510328H198.267V2.04131Z" fill="black"/>
<path d="M212.158 0.510328L210.131 3.7181L208.068 0.510328H206.262V8.16525H207.92V3.17132L210.057 6.41555H210.131L212.305 3.13487V8.16525H214V0.510328H212.158Z" fill="black"/>
</g>
<defs>
<clipPath id="clip0_2028_494">
<rect width="214" height="30" fill="white"/>
</clipPath>
</defs>
</svg>
