<svg width="18" height="18" viewBox="0 0 18 18" fill="none" xmlns="http://www.w3.org/2000/svg">
<g clip-path="url(#clip0_312_746)">
<path fill-rule="evenodd" clip-rule="evenodd" d="M7.18959 11.3275V6.27682C8.98258 7.12051 10.3712 7.93553 12.0136 8.81422C10.659 9.56546 8.98258 10.4084 7.18959 11.3275ZM17.1819 3.76491C16.8726 3.35742 16.3455 3.04023 15.7843 2.93522C14.1347 2.62197 3.84389 2.62108 2.19524 2.93522C1.7452 3.01959 1.34445 3.22351 1.0002 3.54035C-0.450326 4.88666 0.00419956 12.1065 0.353832 13.276C0.500856 13.7822 0.690921 14.1473 0.930285 14.3869C1.23868 14.7038 1.66092 14.9219 2.14592 15.0197C3.50411 15.3007 10.5012 15.4577 15.7556 15.0619C16.2397 14.9776 16.6682 14.7524 17.0062 14.4221C18.3473 13.0812 18.2559 5.45587 17.1819 3.76491Z" fill="white"/>
</g>
<defs>
<clipPath id="clip0_312_746">
<rect width="18" height="18" fill="white"/>
</clipPath>
</defs>
</svg>
